<svg xmlns="http://www.w3.org/2000/svg" width="1920" height="1080"><path d="M1059,610L1103,412L905,364Z" fill="#fbc52e" stroke="#fbc52e" stroke-width="1.51"/><path d="M905,364L774,604L1059,610Z" fill="#fdce2f" stroke="#fdce2f" stroke-width="1.51"/><path d="M1103,412L1097,218L905,364Z" fill="#f6b52d" stroke="#f6b52d" stroke-width="1.51"/><path d="M905,364L597,478L774,604Z" fill="#f7be2d" stroke="#f7be2d" stroke-width="1.51"/><path d="M1097,218L904,201L905,364Z" fill="#f3b32b" stroke="#f3b32b" stroke-width="1.51"/><path d="M774,604L911,843L1059,610Z" fill="#fdbd30" stroke="#fdbd30" stroke-width="1.51"/><path d="M909,-105L683,153L904,201Z" fill="#f7c24a" stroke="#f7c24a" stroke-width="1.51"/><path d="M1103,412L1242,222L1097,218Z" fill="#f4a62c" stroke="#f4a62c" stroke-width="1.51"/><path d="M1364,498L1242,222L1103,412Z" fill="#f7aa2e" stroke="#f7aa2e" stroke-width="1.51"/><path d="M1059,610L1364,498L1103,412Z" fill="#fdbd30" stroke="#fdbd30" stroke-width="1.51"/><path d="M911,843L1112,843L1059,610Z" fill="#fdb131" stroke="#fdb131" stroke-width="1.51"/><path d="M683,153L597,478L905,364Z" fill="#f0aa2a" stroke="#f0aa2a" stroke-width="1.51"/><path d="M774,604L610,913L911,843Z" fill="#f8a52f" stroke="#f8a52f" stroke-width="1.51"/><path d="M1351,618L1364,498L1059,610Z" fill="#feb531" stroke="#feb531" stroke-width="1.51"/><path d="M1112,843L1351,618L1059,610Z" fill="#feae31" stroke="#feae31" stroke-width="1.51"/><path d="M597,478L589,590L774,604Z" fill="#f6ba2c" stroke="#f6ba2c" stroke-width="1.51"/><path d="M904,201L683,153L905,364Z" fill="#efa829" stroke="#efa829" stroke-width="1.51"/><path d="M1049,-68L904,201L1097,218Z" fill="#f8c044" stroke="#f8c044" stroke-width="1.51"/><path d="M1112,843L1313,863L1351,618Z" fill="#fd9b31" stroke="#fd9b31" stroke-width="1.51"/><path d="M1268,1047L1313,863L1112,843Z" fill="#fd9e31" stroke="#fd9e31" stroke-width="1.51"/><path d="M1351,618L1492,615L1364,498Z" fill="#fda931" stroke="#fda931" stroke-width="1.51"/><path d="M1364,498L1499,364L1242,222Z" fill="#f69c2e" stroke="#f69c2e" stroke-width="1.51"/><path d="M1313,863L1492,615L1351,618Z" fill="#fc9a31" stroke="#fc9a31" stroke-width="1.51"/><path d="M1492,615L1499,364L1364,498Z" fill="#fba930" stroke="#fba930" stroke-width="1.51"/><path d="M1242,222L1277,27L1097,218Z" fill="#f6aa3c" stroke="#f6aa3c" stroke-width="1.51"/><path d="M1501,170L1277,27L1242,222Z" fill="#f6a13f" stroke="#f6a13f" stroke-width="1.51"/><path d="M1277,27L1049,-68L1097,218Z" fill="#fbc14f" stroke="#fbc14f" stroke-width="1.51"/><path d="M589,590L610,913L774,604Z" fill="#f5a82d" stroke="#f5a82d" stroke-width="1.51"/><path d="M911,843L1070,1103L1112,843Z" fill="#fdb031" stroke="#fdb031" stroke-width="1.51"/><path d="M597,478L353,622L589,590Z" fill="#f2af2b" stroke="#f2af2b" stroke-width="1.51"/><path d="M589,590L415,901L610,913Z" fill="#f1922c" stroke="#f1922c" stroke-width="1.51"/><path d="M683,153L422,352L597,478Z" fill="#eb9e28" stroke="#eb9e28" stroke-width="1.51"/><path d="M610,913L802,1055L911,843Z" fill="#f9a92f" stroke="#f9a92f" stroke-width="1.51"/><path d="M1049,-68L909,-105L904,201Z" fill="#fdd95b" stroke="#fdd95b" stroke-width="1.51"/><path d="M683,153L398,221L422,352Z" fill="#e68f26" stroke="#e68f26" stroke-width="1.51"/><path d="M1499,364L1501,170L1242,222Z" fill="#f18b2c" stroke="#f18b2c" stroke-width="1.51"/><path d="M802,1055L1070,1103L911,843Z" fill="#fdbd30" stroke="#fdbd30" stroke-width="1.51"/><path d="M1313,863L1520,912L1492,615Z" fill="#fb8b31" stroke="#fb8b31" stroke-width="1.51"/><path d="M1070,1103L1268,1047L1112,843Z" fill="#feaf31" stroke="#feaf31" stroke-width="1.51"/><path d="M606,-51L398,221L683,153Z" fill="#eeaa41" stroke="#eeaa41" stroke-width="1.51"/><path d="M130,380L353,622L422,352Z" fill="#f6be46" stroke="#f6be46" stroke-width="1.51"/><path d="M422,352L353,622L597,478Z" fill="#f2af31" stroke="#f2af31" stroke-width="1.51"/><path d="M909,-105L606,-51L683,153Z" fill="#f8ca59" stroke="#f8ca59" stroke-width="1.51"/><path d="M1268,1047L1520,912L1313,863Z" fill="#fc9431" stroke="#fc9431" stroke-width="1.51"/><path d="M1492,615L1790,500L1499,364Z" fill="#fcb530" stroke="#fcb530" stroke-width="1.51"/><path d="M1815,154L1514,12L1501,170Z" fill="#f8b044" stroke="#f8b044" stroke-width="1.51"/><path d="M353,622L415,901L589,590Z" fill="#f3a132" stroke="#f3a132" stroke-width="1.51"/><path d="M610,913L620,1182L802,1055Z" fill="#f6b02d" stroke="#f6b02d" stroke-width="1.51"/><path d="M1277,27L1119,-219L1049,-68Z" fill="#ffd869" stroke="#ffd869" stroke-width="1.51"/><path d="M1049,-68L1119,-219L909,-105Z" fill="#ffde6a" stroke="#ffde6a" stroke-width="1.51"/><path d="M1501,170L1514,12L1277,27Z" fill="#faa84c" stroke="#faa84c" stroke-width="1.51"/><path d="M1815,154L1501,170L1499,364Z" fill="#f1992c" stroke="#f1992c" stroke-width="1.51"/><path d="M410,-216L411,-78L606,-51Z" fill="#f6c565" stroke="#f6c565" stroke-width="1.51"/><path d="M1335,-319L1119,-219L1277,27Z" fill="#ffc767" stroke="#ffc767" stroke-width="1.51"/><path d="M378,1114L620,1182L610,913Z" fill="#f3a92c" stroke="#f3a92c" stroke-width="1.51"/><path d="M777,1370L1142,1370L1070,1103Z" fill="#ffd94b" stroke="#ffd94b" stroke-width="1.51"/><path d="M1767,724L1790,500L1492,615Z" fill="#feb931" stroke="#feb931" stroke-width="1.51"/><path d="M1268,1047L1543,1052L1520,912Z" fill="#fc9931" stroke="#fc9931" stroke-width="1.51"/><path d="M1341,1359L1543,1052L1268,1047Z" fill="#feaf31" stroke="#feaf31" stroke-width="1.51"/><path d="M1142,1370L1268,1047L1070,1103Z" fill="#fec435" stroke="#fec435" stroke-width="1.51"/><path d="M606,-51L411,-78L398,221Z" fill="#f2b652" stroke="#f2b652" stroke-width="1.51"/><path d="M83,677L227,818L353,622Z" fill="#fcbe52" stroke="#fcbe52" stroke-width="1.51"/><path d="M893,-321L606,-51L909,-105Z" fill="#fcd567" stroke="#fcd567" stroke-width="1.51"/><path d="M1767,724L1492,615L1520,912Z" fill="#fda031" stroke="#fda031" stroke-width="1.51"/><path d="M1119,-219L893,-321L909,-105Z" fill="#ffda69" stroke="#ffda69" stroke-width="1.51"/><path d="M353,622L227,818L415,901Z" fill="#f8a642" stroke="#f8a642" stroke-width="1.51"/><path d="M415,901L378,1114L610,913Z" fill="#f29d30" stroke="#f29d30" stroke-width="1.51"/><path d="M130,380L422,352L142,226Z" fill="#f3b84c" stroke="#f3b84c" stroke-width="1.51"/><path d="M1788,892L1767,724L1520,912Z" fill="#fc9c31" stroke="#fc9c31" stroke-width="1.51"/><path d="M142,226L422,352L398,221Z" fill="#eea83f" stroke="#eea83f" stroke-width="1.51"/><path d="M227,818L378,1114L415,901Z" fill="#f7a942" stroke="#f7a942" stroke-width="1.51"/><path d="M187,-40L142,226L398,221Z" fill="#f4bf5b" stroke="#f4bf5b" stroke-width="1.51"/><path d="M1514,12L1335,-319L1277,27Z" fill="#ffc467" stroke="#ffc467" stroke-width="1.51"/><path d="M1119,-219L1335,-319L893,-321Z" fill="#fec767" stroke="#fec767" stroke-width="1.51"/><path d="M1549,-328L1335,-319L1514,12Z" fill="#ffb865" stroke="#ffb865" stroke-width="1.51"/><path d="M777,1370L802,1055L620,1182Z" fill="#f9c538" stroke="#f9c538" stroke-width="1.51"/><path d="M777,1370L1070,1103L802,1055Z" fill="#fdce34" stroke="#fdce34" stroke-width="1.51"/><path d="M1790,500L1815,154L1499,364Z" fill="#f6ad2d" stroke="#f6ad2d" stroke-width="1.51"/><path d="M1790,500L1960,382L1815,154Z" fill="#f7bb2d" stroke="#f7bb2d" stroke-width="1.51"/><path d="M1984,606L1960,382L1790,500Z" fill="#fdcf34" stroke="#fdcf34" stroke-width="1.51"/><path d="M1543,1052L1788,892L1520,912Z" fill="#fda331" stroke="#fda331" stroke-width="1.51"/><path d="M1791,1076L1788,892L1543,1052Z" fill="#feb131" stroke="#feb131" stroke-width="1.51"/><path d="M634,1374L777,1370L620,1182Z" fill="#f8c94c" stroke="#f8c94c" stroke-width="1.51"/><path d="M411,-78L187,-40L398,221Z" fill="#f6c764" stroke="#f6c764" stroke-width="1.51"/><path d="M562,-320L410,-216L606,-51Z" fill="#f5bc61" stroke="#f5bc61" stroke-width="1.51"/><path d="M893,-321L562,-320L606,-51Z" fill="#f8c564" stroke="#f8c564" stroke-width="1.51"/><path d="M1815,154L1695,-79L1514,12Z" fill="#fdc555" stroke="#fdc555" stroke-width="1.51"/><path d="M227,818L188,1181L378,1114Z" fill="#fabe4c" stroke="#fabe4c" stroke-width="1.51"/><path d="M130,380L83,677L353,622Z" fill="#fdd457" stroke="#fdd457" stroke-width="1.51"/><path d="M-7,456L83,677L130,380Z" fill="#fee166" stroke="#fee166" stroke-width="1.51"/><path d="M1142,1370L1341,1359L1268,1047Z" fill="#ffc246" stroke="#ffc246" stroke-width="1.51"/><path d="M316,1343L634,1374L620,1182Z" fill="#f4bd48" stroke="#f4bd48" stroke-width="1.51"/><path d="M777,1370L634,1374L1142,1370Z" fill="#fdda5a" stroke="#fdda5a" stroke-width="1.51"/><path d="M228,-221L187,-40L411,-78Z" fill="#fade7e" stroke="#fade7e" stroke-width="1.51"/><path d="M1999,37L1763,-258L1695,-79Z" fill="#ffe16a" stroke="#ffe16a" stroke-width="1.51"/><path d="M1984,606L1790,500L1767,724Z" fill="#fec731" stroke="#fec731" stroke-width="1.51"/><path d="M-110,170L-7,456L130,380Z" fill="#f9d065" stroke="#f9d065" stroke-width="1.51"/><path d="M-110,170L130,380L142,226Z" fill="#f6c761" stroke="#f6c761" stroke-width="1.51"/><path d="M1695,-79L1549,-328L1514,12Z" fill="#ffca67" stroke="#ffca67" stroke-width="1.51"/><path d="M1335,-319L1549,-328L893,-321Z" fill="#fdb765" stroke="#fdb765" stroke-width="1.51"/><path d="M893,-321L1549,-328L562,-320Z" fill="#fdcd67" stroke="#fdcd67" stroke-width="1.51"/><path d="M1812,1329L1791,1076L1543,1052Z" fill="#fec531" stroke="#fec531" stroke-width="1.51"/><path d="M2061,823L1984,606L1767,724Z" fill="#ffbf39" stroke="#ffbf39" stroke-width="1.51"/><path d="M1341,1359L1492,1357L1543,1052Z" fill="#ffb644" stroke="#ffb644" stroke-width="1.51"/><path d="M1142,1370L1492,1357L1341,1359Z" fill="#ffc357" stroke="#ffc357" stroke-width="1.51"/><path d="M2061,823L1767,724L1788,892Z" fill="#feaf31" stroke="#feaf31" stroke-width="1.51"/><path d="M-21,945L188,1181L227,818Z" fill="#ffc85d" stroke="#ffc85d" stroke-width="1.51"/><path d="M-7,456L-44,624L83,677Z" fill="#ffe16a" stroke="#ffe16a" stroke-width="1.51"/><path d="M187,-40L-110,170L142,226Z" fill="#f9d774" stroke="#f9d774" stroke-width="1.51"/><path d="M410,-216L228,-221L411,-78Z" fill="#f8cf74" stroke="#f8cf74" stroke-width="1.51"/><path d="M562,-320L228,-221L410,-216Z" fill="#f6c16c" stroke="#f6c16c" stroke-width="1.51"/><path d="M378,1114L316,1343L620,1182Z" fill="#f5bc40" stroke="#f5bc40" stroke-width="1.51"/><path d="M-21,945L227,818L83,677Z" fill="#ffbf60" stroke="#ffbf60" stroke-width="1.51"/><path d="M188,1181L316,1343L378,1114Z" fill="#facd53" stroke="#facd53" stroke-width="1.51"/><path d="M1695,-79L1763,-258L1549,-328Z" fill="#ffc867" stroke="#ffc867" stroke-width="1.51"/><path d="M1999,37L1695,-79L1815,154Z" fill="#fcd054" stroke="#fcd054" stroke-width="1.51"/><path d="M1960,382L2049,248L1815,154Z" fill="#f4b734" stroke="#f4b734" stroke-width="1.51"/><path d="M2305,376L2049,248L1960,382Z" fill="#f8c64b" stroke="#f8c64b" stroke-width="1.51"/><path d="M-44,624L-21,945L83,677Z" fill="#ffcc68" stroke="#ffcc68" stroke-width="1.51"/><path d="M188,1181L207,1368L316,1343Z" fill="#fcda6a" stroke="#fcda6a" stroke-width="1.51"/><path d="M2049,248L1999,37L1815,154Z" fill="#f7c447" stroke="#f7c447" stroke-width="1.51"/><path d="M1984,606L2305,376L1960,382Z" fill="#fcd34b" stroke="#fcd34b" stroke-width="1.51"/><path d="M1791,1076L2061,823L1788,892Z" fill="#feb631" stroke="#feb631" stroke-width="1.51"/><path d="M1928,1185L2061,823L1791,1076Z" fill="#ffc537" stroke="#ffc537" stroke-width="1.51"/><path d="M-7,456L-344,413L-44,624Z" fill="#fed969" stroke="#fed969" stroke-width="1.51"/><path d="M-339,1179L-30,1111L-21,945Z" fill="#ffd469" stroke="#ffd469" stroke-width="1.51"/><path d="M-97,-44L-110,170L187,-40Z" fill="#fde989" stroke="#fde989" stroke-width="1.51"/><path d="M-142,1315L207,1368L188,1181Z" fill="#ffed7b" stroke="#ffed7b" stroke-width="1.51"/><path d="M316,1343L207,1368L634,1374Z" fill="#f8cd61" stroke="#f8cd61" stroke-width="1.51"/><path d="M1812,1329L1928,1185L1791,1076Z" fill="#ffd33a" stroke="#ffd33a" stroke-width="1.51"/><path d="M1492,1357L1812,1329L1543,1052Z" fill="#ffc344" stroke="#ffc344" stroke-width="1.51"/><path d="M-21,945L-30,1111L188,1181Z" fill="#ffde69" stroke="#ffde69" stroke-width="1.51"/><path d="M-374,814L-21,945L-44,624Z" fill="#ffbd65" stroke="#ffbd65" stroke-width="1.51"/><path d="M228,-221L-97,-44L187,-40Z" fill="#fef494" stroke="#fef494" stroke-width="1.51"/><path d="M2061,823L2184,694L1984,606Z" fill="#ffc74a" stroke="#ffc74a" stroke-width="1.51"/><path d="M2049,248L2228,184L1999,37Z" fill="#f7c856" stroke="#f7c856" stroke-width="1.51"/><path d="M2220,812L2184,694L2061,823Z" fill="#ffc253" stroke="#ffc253" stroke-width="1.51"/><path d="M-338,27L-255,244L-110,170Z" fill="#f7c470" stroke="#f7c470" stroke-width="1.51"/><path d="M-110,170L-255,244L-7,456Z" fill="#f6c263" stroke="#f6c263" stroke-width="1.51"/><path d="M2188,1131L2220,812L2061,823Z" fill="#ffc353" stroke="#ffc353" stroke-width="1.51"/><path d="M1812,1329L1955,1286L1928,1185Z" fill="#ffdc4a" stroke="#ffdc4a" stroke-width="1.51"/><path d="M2305,376L2228,184L2049,248Z" fill="#f6c353" stroke="#f6c353" stroke-width="1.51"/><path d="M2188,1131L2061,823L1928,1185Z" fill="#ffce49" stroke="#ffce49" stroke-width="1.51"/><path d="M2305,376L1984,606L2184,694Z" fill="#ffdd55" stroke="#ffdd55" stroke-width="1.51"/><path d="M1999,37L2000,-330L1763,-258Z" fill="#ffe06e" stroke="#ffe06e" stroke-width="1.51"/><path d="M1763,-258L2000,-330L1549,-328Z" fill="#fdc867" stroke="#fdc867" stroke-width="1.51"/><path d="M2226,-43L2000,-330L1999,37Z" fill="#ffee80" stroke="#ffee80" stroke-width="1.51"/><path d="M-255,244L-344,413L-7,456Z" fill="#f8c664" stroke="#f8c664" stroke-width="1.51"/><path d="M-255,244L-338,27L-344,413Z" fill="#f2b060" stroke="#f2b060" stroke-width="1.51"/><path d="M-97,-44L-338,27L-110,170Z" fill="#fad982" stroke="#fad982" stroke-width="1.51"/><path d="M228,-221L-142,-225L-97,-44Z" fill="#fff39b" stroke="#fff39b" stroke-width="1.51"/><path d="M562,-320L-142,-225L228,-221Z" fill="#fbd783" stroke="#fbd783" stroke-width="1.51"/><path d="M2220,812L2305,376L2184,694Z" fill="#ffd95e" stroke="#ffd95e" stroke-width="1.51"/><path d="M2305,376L2226,-43L2228,184Z" fill="#f7cd64" stroke="#f7cd64" stroke-width="1.51"/><path d="M2228,184L2226,-43L1999,37Z" fill="#fbdd6f" stroke="#fbdd6f" stroke-width="1.51"/><path d="M-344,413L-369,649L-44,624Z" fill="#fed369" stroke="#fed369" stroke-width="1.51"/><path d="M2220,812L2184,1354L2305,376Z" fill="#ffbd5b" stroke="#ffbd5b" stroke-width="1.51"/><path d="M1955,1286L2188,1131L1928,1185Z" fill="#ffdd4e" stroke="#ffdd4e" stroke-width="1.51"/><path d="M-369,649L-374,814L-44,624Z" fill="#fec166" stroke="#fec166" stroke-width="1.51"/><path d="M-30,1111L-142,1315L188,1181Z" fill="#ffea73" stroke="#ffea73" stroke-width="1.51"/><path d="M-339,1179L-142,1315L-30,1111Z" fill="#ffde71" stroke="#ffde71" stroke-width="1.51"/><path d="M-344,413L-338,27L-369,649Z" fill="#f6bb63" stroke="#f6bb63" stroke-width="1.51"/><path d="M-268,-222L-338,27L-97,-44Z" fill="#feed9a" stroke="#feed9a" stroke-width="1.51"/><path d="M-142,-225L-268,-222L-97,-44Z" fill="#fee999" stroke="#fee999" stroke-width="1.51"/><path d="M562,-320L-268,-222L-142,-225Z" fill="#feec98" stroke="#feec98" stroke-width="1.51"/><path d="M2305,376L2250,-227L2226,-43Z" fill="#fce67f" stroke="#fce67f" stroke-width="1.51"/><path d="M2226,-43L2250,-227L2000,-330Z" fill="#fee987" stroke="#fee987" stroke-width="1.51"/><path d="M1955,1286L2184,1354L2188,1131Z" fill="#ffe563" stroke="#ffe563" stroke-width="1.51"/><path d="M2188,1131L2184,1354L2220,812Z" fill="#ffdb5a" stroke="#ffdb5a" stroke-width="1.51"/><path d="M1812,1329L2184,1354L1955,1286Z" fill="#ffe45f" stroke="#ffe45f" stroke-width="1.51"/><path d="M1492,1357L2184,1354L1812,1329Z" fill="#ffdc57" stroke="#ffdc57" stroke-width="1.51"/><path d="M1142,1370L2184,1354L1492,1357Z" fill="#ffca58" stroke="#ffca58" stroke-width="1.51"/><path d="M-374,814L-339,1179L-21,945Z" fill="#fec066" stroke="#fec066" stroke-width="1.51"/><path d="M-142,1315L-271,1390L207,1368Z" fill="#fff08b" stroke="#fff08b" stroke-width="1.51"/><path d="M207,1368L-271,1390L634,1374Z" fill="#fde67c" stroke="#fde67c" stroke-width="1.51"/><path d="M634,1374L-271,1390L1142,1370Z" fill="#f5c055" stroke="#f5c055" stroke-width="1.51"/><path d="M-339,1179L-271,1390L-142,1315Z" fill="#fde080" stroke="#fde080" stroke-width="1.51"/></svg>