<svg xmlns="http://www.w3.org/2000/svg" width="1920" height="1080"><path d="M1351,659L1815,645L1656,265Z" fill="#ee7d1c" stroke="#ee7d1c" stroke-width="1.51"/><path d="M1815,645L1873,162L1656,265Z" fill="#e98223" stroke="#e98223" stroke-width="1.51"/><path d="M1351,659L1868,931L1815,645Z" fill="#e66d12" stroke="#e66d12" stroke-width="1.51"/><path d="M1815,645L1985,94L1873,162Z" fill="#e38225" stroke="#e38225" stroke-width="1.51"/><path d="M1873,162L1351,-7L1656,265Z" fill="#f09536" stroke="#f09536" stroke-width="1.51"/><path d="M1656,265L1351,-7L1351,659Z" fill="#f5932c" stroke="#f5932c" stroke-width="1.51"/><path d="M1873,162L1429,-274L1351,-7Z" fill="#f4a14b" stroke="#f4a14b" stroke-width="1.51"/><path d="M2474,181L1985,94L1815,645Z" fill="#d87c24" stroke="#d87c24" stroke-width="1.51"/><path d="M1351,-7L976,353L1351,659Z" fill="#fa9b30" stroke="#fa9b30" stroke-width="1.51"/><path d="M1351,-7L959,184L976,353Z" fill="#fcaa3d" stroke="#fcaa3d" stroke-width="1.51"/><path d="M1351,659L1693,1355L1868,931Z" fill="#de610c" stroke="#de610c" stroke-width="1.51"/><path d="M976,353L811,736L1351,659Z" fill="#fc9325" stroke="#fc9325" stroke-width="1.51"/><path d="M500,129L811,736L976,353Z" fill="#ffac3a" stroke="#ffac3a" stroke-width="1.51"/><path d="M1351,-7L748,-124L959,184Z" fill="#ffb550" stroke="#ffb550" stroke-width="1.51"/><path d="M1819,-497L1429,-274L1873,162Z" fill="#f0a155" stroke="#f0a155" stroke-width="1.51"/><path d="M979,1204L1693,1355L1351,659Z" fill="#e46810" stroke="#e46810" stroke-width="1.51"/><path d="M1693,1355L2242,1076L1868,931Z" fill="#ca4e04" stroke="#ca4e04" stroke-width="1.51"/><path d="M1868,931L2242,1076L1815,645Z" fill="#d35a0a" stroke="#d35a0a" stroke-width="1.51"/><path d="M811,736L979,1204L1351,659Z" fill="#f4811d" stroke="#f4811d" stroke-width="1.51"/><path d="M811,736L869,1141L979,1204Z" fill="#ee801e" stroke="#ee801e" stroke-width="1.51"/><path d="M2242,1076L2474,181L1815,645Z" fill="#cf6413" stroke="#cf6413" stroke-width="1.51"/><path d="M1985,94L1819,-497L1873,162Z" fill="#e79649" stroke="#e79649" stroke-width="1.51"/><path d="M2263,-501L1819,-497L1985,94Z" fill="#e19957" stroke="#e19957" stroke-width="1.51"/><path d="M959,184L500,129L976,353Z" fill="#ffb542" stroke="#ffb542" stroke-width="1.51"/><path d="M1429,-274L748,-124L1351,-7Z" fill="#fdb55c" stroke="#fdb55c" stroke-width="1.51"/><path d="M915,-627L748,-124L1429,-274Z" fill="#ffc26c" stroke="#ffc26c" stroke-width="1.51"/><path d="M2242,1076L2721,783L2474,181Z" fill="#bb5a12" stroke="#bb5a12" stroke-width="1.51"/><path d="M2693,1693L2538,1029L2242,1076Z" fill="#a13a05" stroke="#a13a05" stroke-width="1.51"/><path d="M748,-124L500,129L959,184Z" fill="#ffc156" stroke="#ffc156" stroke-width="1.51"/><path d="M811,736L288,982L869,1141Z" fill="#f3902b" stroke="#f3902b" stroke-width="1.51"/><path d="M2538,1029L2721,783L2242,1076Z" fill="#b0490a" stroke="#b0490a" stroke-width="1.51"/><path d="M500,129L390,696L811,736Z" fill="#feae3b" stroke="#feae3b" stroke-width="1.51"/><path d="M2427,-438L1985,94L2474,181Z" fill="#ce8843" stroke="#ce8843" stroke-width="1.51"/><path d="M2427,-438L2263,-501L1985,94Z" fill="#d59254" stroke="#d59254" stroke-width="1.51"/><path d="M2721,783L2828,418L2474,181Z" fill="#b3631b" stroke="#b3631b" stroke-width="1.51"/><path d="M2722,-318L2427,-438L2474,181Z" fill="#bf874d" stroke="#bf874d" stroke-width="1.51"/><path d="M1193,-775L1429,-274L1819,-497Z" fill="#fab26e" stroke="#fab26e" stroke-width="1.51"/><path d="M1193,-775L915,-627L1429,-274Z" fill="#ffc077" stroke="#ffc077" stroke-width="1.51"/><path d="M748,-124L184,81L500,129Z" fill="#ffce65" stroke="#ffce65" stroke-width="1.51"/><path d="M1693,1355L2265,1798L2242,1076Z" fill="#af3e04" stroke="#af3e04" stroke-width="1.51"/><path d="M1256,1855L1809,1828L1693,1355Z" fill="#af4609" stroke="#af4609" stroke-width="1.51"/><path d="M1256,1855L1693,1355L979,1204Z" fill="#c8580e" stroke="#c8580e" stroke-width="1.51"/><path d="M2263,-501L1193,-775L1819,-497Z" fill="#f2a86c" stroke="#f2a86c" stroke-width="1.51"/><path d="M526,1792L1256,1855L979,1204Z" fill="#c46618" stroke="#c46618" stroke-width="1.51"/><path d="M390,696L288,982L811,736Z" fill="#f8a037" stroke="#f8a037" stroke-width="1.51"/><path d="M-227,640L288,982L390,696Z" fill="#fcae53" stroke="#fcae53" stroke-width="1.51"/><path d="M526,1792L979,1204L869,1141Z" fill="#d8751d" stroke="#d8751d" stroke-width="1.51"/><path d="M2828,418L2722,-318L2474,181Z" fill="#b57834" stroke="#b57834" stroke-width="1.51"/><path d="M1809,1828L2265,1798L1693,1355Z" fill="#a33b05" stroke="#a33b05" stroke-width="1.51"/><path d="M2918,1413L3114,763L2721,783Z" fill="#a1430b" stroke="#a1430b" stroke-width="1.51"/><path d="M500,129L184,81L390,696Z" fill="#ffc457" stroke="#ffc457" stroke-width="1.51"/><path d="M262,-714L184,81L748,-124Z" fill="#ffdb82" stroke="#ffdb82" stroke-width="1.51"/><path d="M1256,1855L1704,2073L1809,1828Z" fill="#a0420a" stroke="#a0420a" stroke-width="1.51"/><path d="M2243,2216L2331,2160L2265,1798Z" fill="#802d06" stroke="#802d06" stroke-width="1.51"/><path d="M948,2230L1316,2034L1256,1855Z" fill="#ab5313" stroke="#ab5313" stroke-width="1.51"/><path d="M2721,783L3114,763L2828,418Z" fill="#ac5614" stroke="#ac5614" stroke-width="1.51"/><path d="M2828,418L3121,-242L2722,-318Z" fill="#b27d41" stroke="#b27d41" stroke-width="1.51"/><path d="M2918,1413L2721,783L2538,1029Z" fill="#9d3f09" stroke="#9d3f09" stroke-width="1.51"/><path d="M1316,2034L1704,2073L1256,1855Z" fill="#a6480d" stroke="#a6480d" stroke-width="1.51"/><path d="M184,81L40,164L390,696Z" fill="#ffc961" stroke="#ffc961" stroke-width="1.51"/><path d="M-325,-24L40,164L184,81Z" fill="#ffdc84" stroke="#ffdc84" stroke-width="1.51"/><path d="M2693,1693L2918,1413L2538,1029Z" fill="#8b3206" stroke="#8b3206" stroke-width="1.51"/><path d="M2265,1798L2693,1693L2242,1076Z" fill="#933205" stroke="#933205" stroke-width="1.51"/><path d="M2851,1766L2693,1693L2881,2099Z" fill="#672506" stroke="#672506" stroke-width="1.51"/><path d="M187,1753L526,1792L288,982Z" fill="#d08437" stroke="#d08437" stroke-width="1.51"/><path d="M288,982L526,1792L869,1141Z" fill="#df8328" stroke="#df8328" stroke-width="1.51"/><path d="M3114,763L3121,-242L2828,418Z" fill="#b06b23" stroke="#b06b23" stroke-width="1.51"/><path d="M2722,-318L3095,-402L2427,-438Z" fill="#b48857" stroke="#b48857" stroke-width="1.51"/><path d="M2427,-438L3095,-402L2263,-501Z" fill="#be8d5c" stroke="#be8d5c" stroke-width="1.51"/><path d="M3121,-242L3095,-402L2722,-318Z" fill="#b48654" stroke="#b48654" stroke-width="1.51"/><path d="M2263,-501L3095,-402L1193,-775Z" fill="#d99965" stroke="#d99965" stroke-width="1.51"/><path d="M2331,2160L2693,1693L2265,1798Z" fill="#772a06" stroke="#772a06" stroke-width="1.51"/><path d="M2693,1693L2851,1766L2918,1413Z" fill="#782a06" stroke="#782a06" stroke-width="1.51"/><path d="M2918,1413L2881,2099L3114,763Z" fill="#873006" stroke="#873006" stroke-width="1.51"/><path d="M2243,2216L2265,1798L1809,1828Z" fill="#893106" stroke="#893106" stroke-width="1.51"/><path d="M2243,2216L1809,1828L1704,2073Z" fill="#933607" stroke="#933607" stroke-width="1.51"/><path d="M1193,-775L262,-714L915,-627Z" fill="#ffd38c" stroke="#ffd38c" stroke-width="1.51"/><path d="M915,-627L262,-714L748,-124Z" fill="#ffd884" stroke="#ffd884" stroke-width="1.51"/><path d="M-325,-24L-227,640L40,164Z" fill="#ffd57a" stroke="#ffd57a" stroke-width="1.51"/><path d="M40,164L-227,640L390,696Z" fill="#ffc162" stroke="#ffc162" stroke-width="1.51"/><path d="M948,2230L2243,2216L1704,2073Z" fill="#9e400a" stroke="#9e400a" stroke-width="1.51"/><path d="M1316,2034L948,2230L1704,2073Z" fill="#a84d0f" stroke="#a84d0f" stroke-width="1.51"/><path d="M526,1792L948,2230L1256,1855Z" fill="#af5f19" stroke="#af5f19" stroke-width="1.51"/><path d="M-245,1403L187,1753L288,982Z" fill="#db924b" stroke="#db924b" stroke-width="1.51"/><path d="M526,1792L237,2236L948,2230Z" fill="#b06f27" stroke="#b06f27" stroke-width="1.51"/><path d="M262,-714L71,-680L184,81Z" fill="#ffe99f" stroke="#ffe99f" stroke-width="1.51"/><path d="M71,-680L-325,-24L184,81Z" fill="#ffe89c" stroke="#ffe89c" stroke-width="1.51"/><path d="M-227,640L-245,1403L288,982Z" fill="#f4a658" stroke="#f4a658" stroke-width="1.51"/><path d="M-657,796L-245,1403L-227,640Z" fill="#f9b16a" stroke="#f9b16a" stroke-width="1.51"/><path d="M-245,1403L44,1846L187,1753Z" fill="#c4894d" stroke="#c4894d" stroke-width="1.51"/><path d="M187,1753L237,2236L526,1792Z" fill="#b17837" stroke="#b17837" stroke-width="1.51"/><path d="M2243,2216L2881,2099L2331,2160Z" fill="#732906" stroke="#732906" stroke-width="1.51"/><path d="M2331,2160L2881,2099L2693,1693Z" fill="#6b2706" stroke="#6b2706" stroke-width="1.51"/><path d="M2851,1766L2881,2099L2918,1413Z" fill="#6e2706" stroke="#6e2706" stroke-width="1.51"/><path d="M-46,2107L237,2236L44,1846Z" fill="#b28048" stroke="#b28048" stroke-width="1.51"/><path d="M44,1846L237,2236L187,1753Z" fill="#b27d43" stroke="#b27d43" stroke-width="1.51"/><path d="M-325,-24L-607,530L-227,640Z" fill="#ffd27f" stroke="#ffd27f" stroke-width="1.51"/><path d="M-607,530L-657,796L-227,640Z" fill="#ffc278" stroke="#ffc278" stroke-width="1.51"/><path d="M-706,1868L-46,2107L44,1846Z" fill="#b48756" stroke="#b48756" stroke-width="1.51"/><path d="M-499,1497L44,1846L-245,1403Z" fill="#cd9057" stroke="#cd9057" stroke-width="1.51"/><path d="M-766,1080L-499,1497L-245,1403Z" fill="#e49f67" stroke="#e49f67" stroke-width="1.51"/><path d="M-325,-24L-684,-157L-607,530Z" fill="#ffe398" stroke="#ffe398" stroke-width="1.51"/><path d="M-607,530L-766,1080L-657,796Z" fill="#ffbb7c" stroke="#ffbb7c" stroke-width="1.51"/><path d="M-668,-583L-684,-157L-325,-24Z" fill="#fff2b8" stroke="#fff2b8" stroke-width="1.51"/><path d="M-657,796L-766,1080L-245,1403Z" fill="#f4aa6e" stroke="#f4aa6e" stroke-width="1.51"/><path d="M-684,-157L-766,1080L-607,530Z" fill="#ffce87" stroke="#ffce87" stroke-width="1.51"/><path d="M-684,-157L-668,-583L-766,1080Z" fill="#ffe5a0" stroke="#ffe5a0" stroke-width="1.51"/><path d="M71,-680L-668,-583L-325,-24Z" fill="#fff5b7" stroke="#fff5b7" stroke-width="1.51"/><path d="M262,-714L-668,-583L71,-680Z" fill="#fff3bc" stroke="#fff3bc" stroke-width="1.51"/><path d="M-766,1080L-706,1868L-499,1497Z" fill="#d8996b" stroke="#d8996b" stroke-width="1.51"/><path d="M-499,1497L-706,1868L44,1846Z" fill="#c08e5d" stroke="#c08e5d" stroke-width="1.51"/><path d="M-46,2107L-706,1868L237,2236Z" fill="#b48553" stroke="#b48553" stroke-width="1.51"/></svg>